<svg xmlns="http://www.w3.org/2000/svg" xmlns:xlink="http://www.w3.org/1999/xlink" version="1.1" width="1000" height="1000" viewBox="0 0 1000 1000" xml:space="preserve">
<desc>Created with Fabric.js 3.5.0</desc>
<defs>
</defs>
<rect x="0" y="0" width="100%" height="100%" fill="#ffffff"/>
<g transform="matrix(5.7468 0 0 5.7468 499.9946 881.3207)" id="424185">
<g style="" vector-effect="non-scaling-stroke">
		<g transform="matrix(1 0 0 1 -0.615 -62.48)" id="Layer_1">
<path style="stroke: none; stroke-width: 1; stroke-dasharray: none; stroke-linecap: butt; stroke-dashoffset: 0; stroke-linejoin: miter; stroke-miterlimit: 4; is-custom-font: none; font-file-url: none; fill: rgb(186,12,47); fill-rule: nonzero; opacity: 1;" transform=" translate(-154.255, -39.07)" d="M 140.72 21.8 l 5.18 -5.18 h 16.8 l 5.18 5.18 V 56.34 l -5.18 5.18 h -16.8 l -5.18 -5.18 V 21.8 h 0 Z m 40.25 -5.64 l -12.81 -12.78 h -27.74 l -12.88 12.89 V 61.88 l 12.88 12.88 h 27.74 l 12.81 -12.74 V 16.16 h 0 Z" stroke-linecap="round"/>
</g>
		<g transform="matrix(1 0 0 1 -0.565 -62.56)" id="Layer_1">
<path style="stroke: none; stroke-width: 1; stroke-dasharray: none; stroke-linecap: butt; stroke-dashoffset: 0; stroke-linejoin: miter; stroke-miterlimit: 4; is-custom-font: none; font-file-url: none; fill: rgb(255,255,255); fill-rule: nonzero; opacity: 1;" transform=" translate(-154.305, -38.99)" d="M 125.86 62.62 V 15.26 l 13.94 -13.93 h 29.15 s 13.88 13.93 13.88 13.93 V 62.72 l -13.98 13.85 h -29.05 s -13.94 -13.95 -13.94 -13.95 h 0 Z M 139.21 0 l -14.67 14.67 V 63.23 l 14.57 14.75 h 30.34 l 14.62 -14.67 V 14.67 L 169.55 0 h -30.34 Z" stroke-linecap="round"/>
</g>
		<g transform="matrix(1 0 0 1 -0.575 -62.51)" id="Layer_1">
<path style="stroke: none; stroke-width: 1; stroke-dasharray: none; stroke-linecap: butt; stroke-dashoffset: 0; stroke-linejoin: miter; stroke-miterlimit: 4; is-custom-font: none; font-file-url: none; fill: rgb(255,255,255); fill-rule: nonzero; opacity: 1;" transform=" translate(-154.295, -39.04)" d="M 147.42 19.94 h 13.78 l 3.28 3.28 v 31.76 l -3.16 3.16 h -14.02 l -3.12 -3.12 V 23.18 l 3.24 -3.24 h 0 Z m 18.39 2.79 l -4.12 -4.12 h -14.85 l -4.06 4.06 V 55.5 l 3.97 3.97 h 15.11 l 3.94 -3.94 V 22.73 h 0 Z" stroke-linecap="round"/>
</g>
		<g transform="matrix(1 0 0 1 -118.47 8.61)" id="Layer_1">
<path style="stroke: none; stroke-width: 1; stroke-dasharray: none; stroke-linecap: butt; stroke-dashoffset: 0; stroke-linejoin: miter; stroke-miterlimit: 4; is-custom-font: none; font-file-url: none; fill: rgb(255,255,255); fill-rule: nonzero; opacity: 1;" transform=" translate(-36.4, -110.16)" d="M 44.67 103.54 l -0.44 -3.02 h -5.53 v 19.53 l 2.95 0.44 v 1.86 h -10.48 v -1.86 l 2.95 -0.44 v -19.53 h -5.53 l -0.44 3.02 h -1.97 v -5.57 h 20.44 v 5.57 h -1.97 Z" stroke-linecap="round"/>
</g>
		<g transform="matrix(1 0 0 1 -95.945 11.245)" id="Layer_1">
<path style="stroke: none; stroke-width: 1; stroke-dasharray: none; stroke-linecap: butt; stroke-dashoffset: 0; stroke-linejoin: miter; stroke-miterlimit: 4; is-custom-font: none; font-file-url: none; fill: rgb(255,255,255); fill-rule: nonzero; opacity: 1;" transform=" translate(-58.925, -112.795)" d="M 59.83 122.35 v -1.75 l 2.73 -0.44 v -6.66 h -7.27 v 6.66 l 2.73 0.44 v 1.75 h -9.93 v -1.75 l 2.84 -0.44 v -14.73 l -2.84 -0.44 v -1.75 h 9.93 v 1.75 l -2.73 0.44 v 5.75 h 7.27 v -5.75 l -2.73 -0.44 v -1.75 h 9.93 v 1.75 l -2.84 0.44 v 14.73 l 2.84 0.44 v 1.75 h -9.93 Z" stroke-linecap="round"/>
</g>
		<g transform="matrix(1 0 0 1 -74.76 11.245)" id="Layer_1">
<path style="stroke: none; stroke-width: 1; stroke-dasharray: none; stroke-linecap: butt; stroke-dashoffset: 0; stroke-linejoin: miter; stroke-miterlimit: 4; is-custom-font: none; font-file-url: none; fill: rgb(255,255,255); fill-rule: nonzero; opacity: 1;" transform=" translate(-80.11, -112.795)" d="M 88.35 122.35 h -16.48 v -1.75 l 2.84 -0.44 v -14.73 l -2.84 -0.44 v -1.75 h 16.48 v 5.06 h -1.85 l -0.44 -2.73 h -6.98 v 5.67 h 4.36 l 0.44 -2.44 h 1.64 v 7.06 h -1.64 l -0.44 -2.44 h -4.36 v 6.58 h 6.98 l 0.44 -2.73 h 1.85 v 5.06 Z" stroke-linecap="round"/>
</g>
		<g transform="matrix(1 0 0 1 -43.325 8.605)" id="Layer_1">
<path style="stroke: none; stroke-width: 1; stroke-dasharray: none; stroke-linecap: butt; stroke-dashoffset: 0; stroke-linejoin: miter; stroke-miterlimit: 4; is-custom-font: none; font-file-url: none; fill: rgb(255,255,255); fill-rule: nonzero; opacity: 1;" transform=" translate(-111.545, -110.155)" d="M 111.52 122.78 c -7.57 0 -10.87 -4.51 -10.87 -12.7 s 3.35 -12.55 10.91 -12.55 s 10.88 4.51 10.88 12.7 s -3.35 12.55 -10.91 12.55 Z m 0.04 -22.59 c -4.04 0 -6.11 3.24 -6.11 9.93 s 2 10 6.04 10 s 6.11 -3.24 6.11 -9.93 s -2 -10 -6.04 -10 Z" stroke-linecap="round"/>
</g>
		<g transform="matrix(1 0 0 1 -19.625 11.245)" id="Layer_1">
<path style="stroke: none; stroke-width: 1; stroke-dasharray: none; stroke-linecap: butt; stroke-dashoffset: 0; stroke-linejoin: miter; stroke-miterlimit: 4; is-custom-font: none; font-file-url: none; fill: rgb(255,255,255); fill-rule: nonzero; opacity: 1;" transform=" translate(-135.245, -112.795)" d="M 136.15 122.35 v -1.75 l 2.73 -0.44 v -6.66 h -7.27 v 6.66 l 2.73 0.44 v 1.75 h -9.93 v -1.75 l 2.84 -0.44 v -14.73 l -2.84 -0.44 v -1.75 h 9.93 v 1.75 l -2.73 0.44 v 5.75 h 7.27 v -5.75 l -2.73 -0.44 v -1.75 h 9.93 v 1.75 l -2.84 0.44 v 14.73 l 2.84 0.44 v 1.75 h -9.93 Z" stroke-linecap="round"/>
</g>
		<g transform="matrix(1 0 0 1 -1.41 11.245)" id="Layer_1">
<path style="stroke: none; stroke-width: 1; stroke-dasharray: none; stroke-linecap: butt; stroke-dashoffset: 0; stroke-linejoin: miter; stroke-miterlimit: 4; is-custom-font: none; font-file-url: none; fill: rgb(255,255,255); fill-rule: nonzero; opacity: 1;" transform=" translate(-153.46, -112.795)" d="M 148.44 122.35 v -1.75 l 2.84 -0.44 v -14.73 l -2.84 -0.44 v -1.75 h 10.04 v 1.75 l -2.84 0.44 v 14.73 l 2.84 0.44 v 1.75 h -10.04 Z" stroke-linecap="round"/>
</g>
		<g transform="matrix(1 0 0 1 14.4 11.265)" id="Layer_1">
<path style="stroke: none; stroke-width: 1; stroke-dasharray: none; stroke-linecap: butt; stroke-dashoffset: 0; stroke-linejoin: miter; stroke-miterlimit: 4; is-custom-font: none; font-file-url: none; fill: rgb(255,255,255); fill-rule: nonzero; opacity: 1;" transform=" translate(-169.27, -112.815)" d="M 169.25 122.71 c -6.44 0 -9.24 -3.6 -9.24 -9.93 s 2.84 -9.86 9.28 -9.86 s 9.24 3.6 9.24 9.93 s -2.84 9.86 -9.27 9.86 Z m 0.04 -17.28 c -3.06 0 -4.69 2.22 -4.69 7.35 s 1.56 7.42 4.62 7.42 s 4.73 -2.22 4.73 -7.35 s -1.6 -7.42 -4.66 -7.42 Z" stroke-linecap="round"/>
</g>
		<g transform="matrix(1 0 0 1 44.26 8.61)" id="Layer_1">
<path style="stroke: none; stroke-width: 1; stroke-dasharray: none; stroke-linecap: butt; stroke-dashoffset: 0; stroke-linejoin: miter; stroke-miterlimit: 4; is-custom-font: none; font-file-url: none; fill: rgb(255,255,255); fill-rule: nonzero; opacity: 1;" transform=" translate(-199.13, -110.16)" d="M 198.42 122.78 c -4.22 0 -7.6 -1.46 -7.6 -1.46 v -5.2 h 2.07 l 0.47 3.35 s 1.56 0.54 4.33 0.54 s 5.38 -0.95 5.38 -4.04 c 0 -2.8 -1.96 -3.2 -4.37 -4 c -3.82 -1.27 -7.86 -2.36 -7.86 -7.6 c 0 -4.26 2.66 -6.84 8.22 -6.84 c 2.55 0 5.2 0.58 7.28 1.38 v 4.88 h -2.07 l -0.47 -3.13 s -2.18 -0.47 -4.29 -0.47 s -4.29 0.73 -4.29 3.53 c 0 6.07 12.22 2.07 12.22 11.79 c 0 4.58 -2.98 7.28 -9.02 7.28 Z" stroke-linecap="round"/>
</g>
		<g transform="matrix(1 0 0 1 62.965 11.24)" id="Layer_1">
<path style="stroke: none; stroke-width: 1; stroke-dasharray: none; stroke-linecap: butt; stroke-dashoffset: 0; stroke-linejoin: miter; stroke-miterlimit: 4; is-custom-font: none; font-file-url: none; fill: rgb(255,255,255); fill-rule: nonzero; opacity: 1;" transform=" translate(-217.835, -112.79)" d="M 224.68 108.52 l -0.44 -2.95 h -4.22 v 14.58 l 2.84 0.44 v 1.75 h -10.04 v -1.75 l 2.84 -0.44 v -14.58 h -4.22 l -0.44 2.95 h -1.86 v -5.28 h 17.39 v 5.28 h -1.86 Z" stroke-linecap="round"/>
</g>
		<g transform="matrix(1 0 0 1 81.88 11.25)" id="Layer_1">
<path style="stroke: none; stroke-width: 1; stroke-dasharray: none; stroke-linecap: butt; stroke-dashoffset: 0; stroke-linejoin: miter; stroke-miterlimit: 4; is-custom-font: none; font-file-url: none; fill: rgb(255,255,255); fill-rule: nonzero; opacity: 1;" transform=" translate(-236.75, -112.8)" d="M 238.21 122.35 v -1.75 l 2.73 -0.44 l -1.34 -3.45 h -7.27 l -1.35 3.45 l 2.73 0.44 v 1.75 h -8.33 v -1.75 l 2.73 -0.44 l 6.55 -16.91 h 4.18 l 6.55 16.91 l 2.73 0.44 v 1.75 h -9.89 Z m -2.26 -15.42 l -2.76 7.57 h 5.53 l -2.77 -7.57 Z" stroke-linecap="round"/>
</g>
		<g transform="matrix(1 0 0 1 100.765 11.24)" id="Layer_1">
<path style="stroke: none; stroke-width: 1; stroke-dasharray: none; stroke-linecap: butt; stroke-dashoffset: 0; stroke-linejoin: miter; stroke-miterlimit: 4; is-custom-font: none; font-file-url: none; fill: rgb(255,255,255); fill-rule: nonzero; opacity: 1;" transform=" translate(-255.635, -112.79)" d="M 262.47 108.52 l -0.44 -2.95 h -4.22 v 14.58 l 2.84 0.44 v 1.75 h -10.04 v -1.75 l 2.84 -0.44 v -14.58 h -4.22 l -0.44 2.95 h -1.85 v -5.28 h 17.39 v 5.28 h -1.86 Z" stroke-linecap="round"/>
</g>
		<g transform="matrix(1 0 0 1 119.36 11.245)" id="Layer_1">
<path style="stroke: none; stroke-width: 1; stroke-dasharray: none; stroke-linecap: butt; stroke-dashoffset: 0; stroke-linejoin: miter; stroke-miterlimit: 4; is-custom-font: none; font-file-url: none; fill: rgb(255,255,255); fill-rule: nonzero; opacity: 1;" transform=" translate(-274.23, -112.795)" d="M 282.47 122.35 h -16.48 v -1.75 l 2.84 -0.44 v -14.73 l -2.84 -0.44 v -1.75 h 16.48 v 5.06 h -1.86 l -0.44 -2.73 h -6.98 v 5.67 h 4.36 l 0.44 -2.44 h 1.64 v 7.06 h -1.64 l -0.44 -2.44 h -4.36 v 6.58 h 6.98 l 0.44 -2.73 h 1.86 v 5.06 Z" stroke-linecap="round"/>
</g>
		<g transform="matrix(1 0 0 1 -86.18 44.845)" id="Layer_1">
<path style="stroke: none; stroke-width: 1; stroke-dasharray: none; stroke-linecap: butt; stroke-dashoffset: 0; stroke-linejoin: miter; stroke-miterlimit: 4; is-custom-font: none; font-file-url: none; fill: rgb(255,255,255); fill-rule: nonzero; opacity: 1;" transform=" translate(-68.69, -146.395)" d="M 78.11 136.29 v 12.44 c 0 4.18 -0.25 6 -2.22 7.96 c -1.42 1.42 -3.75 2.11 -7.2 2.11 s -5.97 -0.95 -7.57 -2.54 c -2.07 -2.07 -1.85 -5.17 -1.85 -7.86 v -12.11 l -2.95 -0.44 v -1.86 h 10.48 v 1.86 l -2.95 0.44 v 14.26 c 0 4 2.22 5.6 5.64 5.6 c 1.82 0 3.31 -0.36 4.29 -1.42 c 0.87 -0.91 1.35 -2.33 1.35 -4.18 v -14.26 l -2.95 -0.44 v -1.86 h 8.88 v 1.86 l -2.95 0.44 Z" stroke-linecap="round"/>
</g>
		<g transform="matrix(1 0 0 1 -61.81 47.27)" id="Layer_1">
<path style="stroke: none; stroke-width: 1; stroke-dasharray: none; stroke-linecap: butt; stroke-dashoffset: 0; stroke-linejoin: miter; stroke-miterlimit: 4; is-custom-font: none; font-file-url: none; fill: rgb(255,255,255); fill-rule: nonzero; opacity: 1;" transform=" translate(-93.06, -148.82)" d="M 101.06 141.46 v 16.91 h -3.42 l -9.71 -13.64 v 11.46 l 2.84 0.44 v 1.75 h -8.55 v -1.75 l 2.84 -0.44 v -14.73 l -2.84 -0.44 v -1.75 h 6.66 l 9.31 13.02 v -10.84 l -2.84 -0.44 v -1.75 h 8.55 v 1.75 l -2.84 0.44 Z" stroke-linecap="round"/>
</g>
		<g transform="matrix(1 0 0 1 -43.7 47.265)" id="Layer_1">
<path style="stroke: none; stroke-width: 1; stroke-dasharray: none; stroke-linecap: butt; stroke-dashoffset: 0; stroke-linejoin: miter; stroke-miterlimit: 4; is-custom-font: none; font-file-url: none; fill: rgb(255,255,255); fill-rule: nonzero; opacity: 1;" transform=" translate(-111.17, -148.815)" d="M 106.15 158.37 v -1.75 l 2.84 -0.44 v -14.73 l -2.84 -0.44 v -1.75 h 10.04 v 1.75 l -2.84 0.44 v 14.73 l 2.84 0.44 v 1.75 h -10.04 Z" stroke-linecap="round"/>
</g>
		<g transform="matrix(1 0 0 1 -25.85 47.27)" id="Layer_1">
<path style="stroke: none; stroke-width: 1; stroke-dasharray: none; stroke-linecap: butt; stroke-dashoffset: 0; stroke-linejoin: miter; stroke-miterlimit: 4; is-custom-font: none; font-file-url: none; fill: rgb(255,255,255); fill-rule: nonzero; opacity: 1;" transform=" translate(-129.02, -148.82)" d="M 137.51 141.46 l -6.37 16.91 h -4.22 l -6.37 -16.91 l -2.73 -0.44 v -1.75 h 9.89 v 1.75 l -2.73 0.44 l 4.84 13.1 l 4.8 -13.1 l -2.73 -0.44 v -1.75 h 8.33 v 1.75 l -2.73 0.44 Z" stroke-linecap="round"/>
</g>
		<g transform="matrix(1 0 0 1 -4.9 47.265)" id="Layer_1">
<path style="stroke: none; stroke-width: 1; stroke-dasharray: none; stroke-linecap: butt; stroke-dashoffset: 0; stroke-linejoin: miter; stroke-miterlimit: 4; is-custom-font: none; font-file-url: none; fill: rgb(255,255,255); fill-rule: nonzero; opacity: 1;" transform=" translate(-149.97, -148.815)" d="M 158.21 158.37 h -16.48 v -1.75 l 2.84 -0.44 v -14.73 l -2.84 -0.44 v -1.75 h 16.48 v 5.06 h -1.86 l -0.44 -2.73 h -6.99 v 5.68 h 4.36 l 0.44 -2.44 h 1.64 v 7.06 h -1.64 l -0.44 -2.44 h -4.36 v 6.58 h 6.99 l 0.44 -2.73 h 1.86 v 5.06 Z" stroke-linecap="round"/>
</g>
		<g transform="matrix(1 0 0 1 16.275 47.265)" id="Layer_1">
<path style="stroke: none; stroke-width: 1; stroke-dasharray: none; stroke-linecap: butt; stroke-dashoffset: 0; stroke-linejoin: miter; stroke-miterlimit: 4; is-custom-font: none; font-file-url: none; fill: rgb(255,255,255); fill-rule: nonzero; opacity: 1;" transform=" translate(-171.145, -148.815)" d="M 174.94 158.37 l -1.78 -4.37 c -1.2 -2.91 -1.93 -4.26 -4.47 -4.26 h -0.33 v 6.44 l 2.73 0.44 v 1.75 h -9.93 v -1.75 l 2.84 -0.44 v -14.73 l -2.84 -0.44 v -1.75 h 9.64 c 1.96 0 4.25 0.11 5.75 1.49 c 0.98 0.91 1.53 2.15 1.53 3.56 c 0 2.22 -1.46 4.22 -3.46 4.84 c 1.6 1.2 2.98 5.13 3.78 7.02 l 2.73 0.44 v 1.75 h -6.18 Z m -2.04 -16.19 c -0.73 -0.76 -2.29 -0.69 -3.27 -0.69 h -1.27 v 6.11 h 0.76 c 1.24 0 2.95 0.15 3.86 -0.87 c 0.58 -0.65 0.73 -1.42 0.73 -2.25 s -0.18 -1.64 -0.8 -2.29 Z" stroke-linecap="round"/>
</g>
		<g transform="matrix(1 0 0 1 35.475 47.295)" id="Layer_1">
<path style="stroke: none; stroke-width: 1; stroke-dasharray: none; stroke-linecap: butt; stroke-dashoffset: 0; stroke-linejoin: miter; stroke-miterlimit: 4; is-custom-font: none; font-file-url: none; fill: rgb(255,255,255); fill-rule: nonzero; opacity: 1;" transform=" translate(-190.345, -148.845)" d="M 189.74 158.73 c -3.56 0 -6.55 -1.2 -6.55 -1.2 v -4.95 h 1.96 l 0.47 3.13 s 1.38 0.4 3.53 0.4 c 2.33 0 4.11 -0.77 4.11 -2.84 c 0 -1.45 -0.8 -1.96 -2 -2.36 c -3.53 -1.2 -8.04 -1.71 -8.04 -6.47 c 0 -3.42 2.36 -5.49 7.06 -5.49 c 2.15 0 4.37 0.44 6.3 1.13 v 4.73 h -1.96 l -0.47 -2.98 s -1.6 -0.36 -3.38 -0.36 s -3.35 0.62 -3.35 2.47 c 0 4.26 10.08 1.42 10.08 8.98 c 0 3.71 -2.69 5.82 -7.75 5.82 Z" stroke-linecap="round"/>
</g>
		<g transform="matrix(1 0 0 1 50.18 47.265)" id="Layer_1">
<path style="stroke: none; stroke-width: 1; stroke-dasharray: none; stroke-linecap: butt; stroke-dashoffset: 0; stroke-linejoin: miter; stroke-miterlimit: 4; is-custom-font: none; font-file-url: none; fill: rgb(255,255,255); fill-rule: nonzero; opacity: 1;" transform=" translate(-205.05, -148.815)" d="M 200.03 158.37 v -1.75 l 2.84 -0.44 v -14.73 l -2.84 -0.44 v -1.75 h 10.04 v 1.75 l -2.84 0.44 v 14.73 l 2.84 0.44 v 1.75 h -10.04 Z" stroke-linecap="round"/>
</g>
		<g transform="matrix(1 0 0 1 65.975 47.275)" id="Layer_1">
<path style="stroke: none; stroke-width: 1; stroke-dasharray: none; stroke-linecap: butt; stroke-dashoffset: 0; stroke-linejoin: miter; stroke-miterlimit: 4; is-custom-font: none; font-file-url: none; fill: rgb(255,255,255); fill-rule: nonzero; opacity: 1;" transform=" translate(-220.845, -148.825)" d="M 227.68 144.55 l -0.44 -2.95 h -4.22 v 14.59 l 2.84 0.44 v 1.75 h -10.04 v -1.75 l 2.84 -0.44 v -14.59 h -4.22 l -0.43 2.95 h -1.86 v -5.28 h 17.39 v 5.28 h -1.85 Z" stroke-linecap="round"/>
</g>
		<g transform="matrix(1 0 0 1 86.95 47.275)" id="Layer_1">
<path style="stroke: none; stroke-width: 1; stroke-dasharray: none; stroke-linecap: butt; stroke-dashoffset: 0; stroke-linejoin: miter; stroke-miterlimit: 4; is-custom-font: none; font-file-url: none; fill: rgb(255,255,255); fill-rule: nonzero; opacity: 1;" transform=" translate(-241.82, -148.825)" d="M 249.61 141.46 l -5.57 8.62 v 6.11 l 2.84 0.44 v 1.75 h -10.04 v -1.75 l 2.84 -0.44 v -6.11 l -5.64 -8.62 l -2.73 -0.44 v -1.75 h 10.11 v 1.75 l -2.73 0.44 l 3.93 6.18 l 3.89 -6.18 l -2.62 -0.44 v -1.75 h 8.44 v 1.75 l -2.73 0.44 Z" stroke-linecap="round"/>
</g>
		<g transform="matrix(1 0 0 1 -0.54 70.785)" id="Layer_1">
<polygon style="stroke: none; stroke-width: 1; stroke-dasharray: none; stroke-linecap: butt; stroke-dashoffset: 0; stroke-linejoin: miter; stroke-miterlimit: 4; is-custom-font: none; font-file-url: none; fill: rgb(255,255,255); fill-rule: nonzero; opacity: 1;" points="-99.46,-0.685 -99.46,0.685 99.46,0.685 99.46,-0.685 -99.46,-0.685 -99.46,-0.685 "/>
</g>
		<g transform="matrix(1 0 0 1 26.275 -28.43)" id="Layer_1">
<path style="stroke: none; stroke-width: 1; stroke-dasharray: none; stroke-linecap: butt; stroke-dashoffset: 0; stroke-linejoin: miter; stroke-miterlimit: 4; is-custom-font: none; font-file-url: none; fill: rgb(255,255,255); fill-rule: nonzero; opacity: 1;" transform=" translate(-181.145, -73.12)" d="M 181.42 71.72 h -1.01 v 1.34 h 1.01 c 0.32 0 0.67 -0.27 0.67 -0.66 c 0 -0.41 -0.35 -0.68 -0.67 -0.68 m 0.61 3.26 l -0.96 -1.47 h -0.66 v 1.47 h -0.5 v -3.71 h 1.51 c 0.62 0 1.19 0.44 1.19 1.13 c 0 0.82 -0.73 1.1 -0.95 1.1 l 0.99 1.48 h -0.62 Z m -0.88 -4.64 c -1.53 0 -2.76 1.22 -2.76 2.77 s 1.24 2.76 2.76 2.76 s 2.78 -1.25 2.78 -2.76 s -1.24 -2.77 -2.78 -2.77 m 0 6.01 c -1.79 0 -3.24 -1.45 -3.24 -3.23 s 1.45 -3.23 3.24 -3.23 s 3.23 1.43 3.23 3.23 s -1.44 3.23 -3.23 3.23" stroke-linecap="round"/>
</g>
		<g transform="matrix(1 0 0 1 -148.715 93.265)" id="Layer_1">
<path style="stroke: none; stroke-width: 1; stroke-dasharray: none; stroke-linecap: butt; stroke-dashoffset: 0; stroke-linejoin: miter; stroke-miterlimit: 4; is-custom-font: none; font-file-url: none; fill: rgb(255,255,255); fill-rule: nonzero; opacity: 1;" transform=" translate(-6.155, -194.815)" d="M 4.97 188.92 H 0 v -2.11 H 12.31 v 2.11 H 7.37 v 13.9 h -2.4 v -13.9 Z" stroke-linecap="round"/>
</g>
		<g transform="matrix(1 0 0 1 -133.84 93.255)" id="Layer_1">
<path style="stroke: none; stroke-width: 1; stroke-dasharray: none; stroke-linecap: butt; stroke-dashoffset: 0; stroke-linejoin: miter; stroke-miterlimit: 4; is-custom-font: none; font-file-url: none; fill: rgb(255,255,255); fill-rule: nonzero; opacity: 1;" transform=" translate(-21.03, -194.805)" d="M 25.46 195.66 h -8.86 v 7.15 h -2.4 v -16.01 h 2.4 v 6.72 h 8.86 v -6.72 h 2.4 v 16.01 h -2.4 v -7.15 Z" stroke-linecap="round"/>
</g>
		<g transform="matrix(1 0 0 1 -118.675 93.255)" id="Layer_1">
<path style="stroke: none; stroke-width: 1; stroke-dasharray: none; stroke-linecap: butt; stroke-dashoffset: 0; stroke-linejoin: miter; stroke-miterlimit: 4; is-custom-font: none; font-file-url: none; fill: rgb(255,255,255); fill-rule: nonzero; opacity: 1;" transform=" translate(-36.195, -194.805)" d="M 30.82 186.81 h 10.75 v 2.11 h -8.35 v 4.68 h 8.18 v 2.11 h -8.18 v 4.99 h 8.35 v 2.11 h -10.75 v -16.01 Z" stroke-linecap="round"/>
</g>
		<g transform="matrix(1 0 0 1 -97.92 93.27)" id="Layer_1">
<path style="stroke: none; stroke-width: 1; stroke-dasharray: none; stroke-linecap: butt; stroke-dashoffset: 0; stroke-linejoin: miter; stroke-miterlimit: 4; is-custom-font: none; font-file-url: none; fill: rgb(255,255,255); fill-rule: nonzero; opacity: 1;" transform=" translate(-56.95, -194.82)" d="M 56.95 186.54 c 4.78 0 8.06 3.53 8.06 8.28 s -3.29 8.28 -8.06 8.28 s -8.06 -3.53 -8.06 -8.28 s 3.29 -8.28 8.06 -8.28 Z m 0 2.14 c -3.43 0 -5.59 2.62 -5.59 6.14 s 2.16 6.14 5.59 6.14 s 5.59 -2.64 5.59 -6.14 s -2.21 -6.14 -5.59 -6.14 Z" stroke-linecap="round"/>
</g>
		<g transform="matrix(1 0 0 1 -80.72 93.255)" id="Layer_1">
<path style="stroke: none; stroke-width: 1; stroke-dasharray: none; stroke-linecap: butt; stroke-dashoffset: 0; stroke-linejoin: miter; stroke-miterlimit: 4; is-custom-font: none; font-file-url: none; fill: rgb(255,255,255); fill-rule: nonzero; opacity: 1;" transform=" translate(-74.15, -194.805)" d="M 78.58 195.66 h -8.86 v 7.15 h -2.4 v -16.01 h 2.4 v 6.72 h 8.86 v -6.72 h 2.4 v 16.01 h -2.4 v -7.15 Z" stroke-linecap="round"/>
</g>
		<g transform="matrix(1 0 0 1 -69.74 93.265)" id="Layer_1">
<path style="stroke: none; stroke-width: 1; stroke-dasharray: none; stroke-linecap: butt; stroke-dashoffset: 0; stroke-linejoin: miter; stroke-miterlimit: 4; is-custom-font: none; font-file-url: none; fill: rgb(255,255,255); fill-rule: nonzero; opacity: 1;" transform=" translate(-85.13, -194.815)" d="M 83.93 186.81 h 2.4 v 16.01 h -2.4 v -16.01 Z" stroke-linecap="round"/>
</g>
		<g transform="matrix(1 0 0 1 -58.17 93.27)" id="Layer_1">
<path style="stroke: none; stroke-width: 1; stroke-dasharray: none; stroke-linecap: butt; stroke-dashoffset: 0; stroke-linejoin: miter; stroke-miterlimit: 4; is-custom-font: none; font-file-url: none; fill: rgb(255,255,255); fill-rule: nonzero; opacity: 1;" transform=" translate(-96.7, -194.82)" d="M 96.7 186.54 c 4.78 0 8.06 3.53 8.06 8.28 s -3.29 8.28 -8.06 8.28 s -8.06 -3.53 -8.06 -8.28 s 3.29 -8.28 8.06 -8.28 Z m 0 2.14 c -3.43 0 -5.59 2.62 -5.59 6.14 s 2.16 6.14 5.59 6.14 s 5.59 -2.64 5.59 -6.14 s -2.21 -6.14 -5.59 -6.14 Z" stroke-linecap="round"/>
</g>
		<g transform="matrix(1 0 0 1 -37.02 93.29)" id="Layer_1">
<path style="stroke: none; stroke-width: 1; stroke-dasharray: none; stroke-linecap: butt; stroke-dashoffset: 0; stroke-linejoin: miter; stroke-miterlimit: 4; is-custom-font: none; font-file-url: none; fill: rgb(255,255,255); fill-rule: nonzero; opacity: 1;" transform=" translate(-117.85, -194.84)" d="M 113.04 198.71 c 1.08 1.2 2.81 2.26 5.04 2.26 c 2.59 0 3.5 -1.32 3.5 -2.47 c 0 -1.68 -1.82 -2.16 -3.86 -2.69 c -2.57 -0.67 -5.54 -1.42 -5.54 -4.68 c 0 -2.64 2.33 -4.56 5.66 -4.56 c 2.47 0 4.42 0.79 5.83 2.23 l -1.39 1.78 c -1.22 -1.3 -2.9 -1.87 -4.63 -1.87 s -3 0.91 -3 2.26 c 0 1.44 1.73 1.9 3.72 2.4 c 2.62 0.7 5.66 1.51 5.66 4.92 c 0 2.5 -1.73 4.82 -6.05 4.82 c -2.86 0 -4.94 -1.03 -6.31 -2.54 l 1.37 -1.85 Z" stroke-linecap="round"/>
</g>
		<g transform="matrix(1 0 0 1 -23.745 93.265)" id="Layer_1">
<path style="stroke: none; stroke-width: 1; stroke-dasharray: none; stroke-linecap: butt; stroke-dashoffset: 0; stroke-linejoin: miter; stroke-miterlimit: 4; is-custom-font: none; font-file-url: none; fill: rgb(255,255,255); fill-rule: nonzero; opacity: 1;" transform=" translate(-131.125, -194.815)" d="M 129.94 188.92 h -4.97 v -2.11 h 12.31 v 2.11 h -4.94 v 13.9 h -2.4 v -13.9 Z" stroke-linecap="round"/>
</g>
		<g transform="matrix(1 0 0 1 -11.08 93.255)" id="Layer_1">
<path style="stroke: none; stroke-width: 1; stroke-dasharray: none; stroke-linecap: butt; stroke-dashoffset: 0; stroke-linejoin: miter; stroke-miterlimit: 4; is-custom-font: none; font-file-url: none; fill: rgb(255,255,255); fill-rule: nonzero; opacity: 1;" transform=" translate(-143.79, -194.805)" d="M 147.72 199.5 h -7.85 l -1.3 3.31 h -2.64 l 6.36 -16.01 h 3 l 6.36 16.01 h -2.64 l -1.3 -3.31 Z m -7.15 -2.14 h 6.46 l -3.24 -8.47 l -3.22 8.47 Z" stroke-linecap="round"/>
</g>
		<g transform="matrix(1 0 0 1 1.615 93.265)" id="Layer_1">
<path style="stroke: none; stroke-width: 1; stroke-dasharray: none; stroke-linecap: butt; stroke-dashoffset: 0; stroke-linejoin: miter; stroke-miterlimit: 4; is-custom-font: none; font-file-url: none; fill: rgb(255,255,255); fill-rule: nonzero; opacity: 1;" transform=" translate(-156.485, -194.815)" d="M 155.3 188.92 h -4.97 v -2.11 h 12.31 v 2.11 h -4.94 v 13.9 h -2.4 v -13.9 Z" stroke-linecap="round"/>
</g>
		<g transform="matrix(1 0 0 1 15.045 93.255)" id="Layer_1">
<path style="stroke: none; stroke-width: 1; stroke-dasharray: none; stroke-linecap: butt; stroke-dashoffset: 0; stroke-linejoin: miter; stroke-miterlimit: 4; is-custom-font: none; font-file-url: none; fill: rgb(255,255,255); fill-rule: nonzero; opacity: 1;" transform=" translate(-169.915, -194.805)" d="M 164.54 186.81 h 10.75 v 2.11 h -8.35 v 4.68 h 8.18 v 2.11 h -8.18 v 4.99 h 8.35 v 2.11 h -10.75 v -16.01 Z" stroke-linecap="round"/>
</g>
		<g transform="matrix(1 0 0 1 35.15 93.41)" id="Layer_1">
<path style="stroke: none; stroke-width: 1; stroke-dasharray: none; stroke-linecap: butt; stroke-dashoffset: 0; stroke-linejoin: miter; stroke-miterlimit: 4; is-custom-font: none; font-file-url: none; fill: rgb(255,255,255); fill-rule: nonzero; opacity: 1;" transform=" translate(-190.02, -194.96)" d="M 183.29 186.81 h 2.42 v 9.67 c 0 2.74 1.51 4.49 4.32 4.49 s 4.3 -1.75 4.3 -4.49 v -9.67 h 2.42 v 9.72 c 0 3.98 -2.23 6.58 -6.72 6.58 s -6.74 -2.62 -6.74 -6.55 v -9.75 Z" stroke-linecap="round"/>
</g>
		<g transform="matrix(1 0 0 1 51.65 93.265)" id="Layer_1">
<path style="stroke: none; stroke-width: 1; stroke-dasharray: none; stroke-linecap: butt; stroke-dashoffset: 0; stroke-linejoin: miter; stroke-miterlimit: 4; is-custom-font: none; font-file-url: none; fill: rgb(255,255,255); fill-rule: nonzero; opacity: 1;" transform=" translate(-206.52, -194.815)" d="M 202.13 190.53 v 12.29 h -2.4 v -16.01 h 2.47 l 8.71 12 v -12 h 2.4 v 16.01 h -2.33 l -8.86 -12.29 Z" stroke-linecap="round"/>
</g>
		<g transform="matrix(1 0 0 1 62.59 93.265)" id="Layer_1">
<path style="stroke: none; stroke-width: 1; stroke-dasharray: none; stroke-linecap: butt; stroke-dashoffset: 0; stroke-linejoin: miter; stroke-miterlimit: 4; is-custom-font: none; font-file-url: none; fill: rgb(255,255,255); fill-rule: nonzero; opacity: 1;" transform=" translate(-217.46, -194.815)" d="M 216.26 186.81 h 2.4 v 16.01 h -2.4 v -16.01 Z" stroke-linecap="round"/>
</g>
		<g transform="matrix(1 0 0 1 72.975 93.265)" id="Layer_1">
<path style="stroke: none; stroke-width: 1; stroke-dasharray: none; stroke-linecap: butt; stroke-dashoffset: 0; stroke-linejoin: miter; stroke-miterlimit: 4; is-custom-font: none; font-file-url: none; fill: rgb(255,255,255); fill-rule: nonzero; opacity: 1;" transform=" translate(-227.845, -194.815)" d="M 219.98 186.81 h 2.74 l 5.11 13.39 l 5.14 -13.39 h 2.74 l -6.36 16.01 h -3 l -6.36 -16.01 Z" stroke-linecap="round"/>
</g>
		<g transform="matrix(1 0 0 1 87.525 93.255)" id="Layer_1">
<path style="stroke: none; stroke-width: 1; stroke-dasharray: none; stroke-linecap: butt; stroke-dashoffset: 0; stroke-linejoin: miter; stroke-miterlimit: 4; is-custom-font: none; font-file-url: none; fill: rgb(255,255,255); fill-rule: nonzero; opacity: 1;" transform=" translate(-242.395, -194.805)" d="M 237.02 186.81 h 10.75 v 2.11 h -8.35 v 4.68 h 8.18 v 2.11 h -8.18 v 4.99 h 8.35 v 2.11 h -10.75 v -16.01 Z" stroke-linecap="round"/>
</g>
		<g transform="matrix(1 0 0 1 101.3 93.265)" id="Layer_1">
<path style="stroke: none; stroke-width: 1; stroke-dasharray: none; stroke-linecap: butt; stroke-dashoffset: 0; stroke-linejoin: miter; stroke-miterlimit: 4; is-custom-font: none; font-file-url: none; fill: rgb(255,255,255); fill-rule: nonzero; opacity: 1;" transform=" translate(-256.17, -194.815)" d="M 255.57 196.65 h -3 v 6.17 h -2.4 v -16.01 h 6.74 c 3.05 0 5.14 1.97 5.14 4.92 s -1.94 4.42 -3.98 4.68 l 4.1 6.41 h -2.78 l -3.82 -6.17 Z m 1.03 -7.73 h -4.03 v 5.62 h 4.03 c 1.73 0 2.98 -1.13 2.98 -2.81 s -1.25 -2.81 -2.98 -2.81 Z" stroke-linecap="round"/>
</g>
		<g transform="matrix(1 0 0 1 114.73 93.29)" id="Layer_1">
<path style="stroke: none; stroke-width: 1; stroke-dasharray: none; stroke-linecap: butt; stroke-dashoffset: 0; stroke-linejoin: miter; stroke-miterlimit: 4; is-custom-font: none; font-file-url: none; fill: rgb(255,255,255); fill-rule: nonzero; opacity: 1;" transform=" translate(-269.6, -194.84)" d="M 264.79 198.71 c 1.08 1.2 2.81 2.26 5.04 2.26 c 2.59 0 3.5 -1.32 3.5 -2.47 c 0 -1.68 -1.82 -2.16 -3.86 -2.69 c -2.57 -0.67 -5.54 -1.42 -5.54 -4.68 c 0 -2.64 2.33 -4.56 5.66 -4.56 c 2.47 0 4.42 0.79 5.83 2.23 l -1.39 1.78 c -1.22 -1.3 -2.9 -1.87 -4.63 -1.87 s -3 0.91 -3 2.26 c 0 1.44 1.73 1.9 3.72 2.4 c 2.62 0.7 5.66 1.51 5.66 4.92 c 0 2.5 -1.73 4.82 -6.05 4.82 c -2.86 0 -4.95 -1.03 -6.31 -2.54 l 1.37 -1.85 Z" stroke-linecap="round"/>
</g>
		<g transform="matrix(1 0 0 1 124.3 93.265)" id="Layer_1">
<path style="stroke: none; stroke-width: 1; stroke-dasharray: none; stroke-linecap: butt; stroke-dashoffset: 0; stroke-linejoin: miter; stroke-miterlimit: 4; is-custom-font: none; font-file-url: none; fill: rgb(255,255,255); fill-rule: nonzero; opacity: 1;" transform=" translate(-279.17, -194.815)" d="M 277.97 186.81 h 2.4 v 16.01 h -2.4 v -16.01 Z" stroke-linecap="round"/>
</g>
		<g transform="matrix(1 0 0 1 133.565 93.265)" id="Layer_1">
<path style="stroke: none; stroke-width: 1; stroke-dasharray: none; stroke-linecap: butt; stroke-dashoffset: 0; stroke-linejoin: miter; stroke-miterlimit: 4; is-custom-font: none; font-file-url: none; fill: rgb(255,255,255); fill-rule: nonzero; opacity: 1;" transform=" translate(-288.435, -194.815)" d="M 287.25 188.92 h -4.97 v -2.11 h 12.31 v 2.11 h -4.94 v 13.9 h -2.4 v -13.9 Z" stroke-linecap="round"/>
</g>
		<g transform="matrix(1 0 0 1 147.425 93.265)" id="Layer_1">
<path style="stroke: none; stroke-width: 1; stroke-dasharray: none; stroke-linecap: butt; stroke-dashoffset: 0; stroke-linejoin: miter; stroke-miterlimit: 4; is-custom-font: none; font-file-url: none; fill: rgb(255,255,255); fill-rule: nonzero; opacity: 1;" transform=" translate(-302.295, -194.815)" d="M 301.1 196.12 l -6.26 -9.31 h 2.76 l 4.71 7.15 l 4.66 -7.15 h 2.78 l -6.24 9.31 v 6.7 h -2.4 v -6.7 Z" stroke-linecap="round"/>
</g>
</g>
</g>
</svg>