<?xml version="1.0" encoding="UTF-8"?><svg id="Layer_1" xmlns="http://www.w3.org/2000/svg" viewBox="0 0 309.74 203.1"><defs><style>.cls-1{fill:#fff;}.cls-2{fill:#ba0c2f;}</style></defs><g><path class="cls-2" d="M140.72,21.8l5.18-5.18h16.8l5.18,5.18V56.34l-5.18,5.18h-16.8l-5.18-5.18V21.8h0Zm40.25-5.64l-12.81-12.78h-27.74l-12.88,12.89V61.88l12.88,12.88h27.74l12.81-12.74V16.16h0Z"/><path class="cls-1" d="M125.86,62.62V15.26l13.94-13.93h29.15s13.88,13.93,13.88,13.93V62.72l-13.98,13.85h-29.05s-13.94-13.95-13.94-13.95h0ZM139.21,0l-14.67,14.67V63.23l14.57,14.75h30.34l14.62-14.67V14.67L169.55,0h-30.34Z"/><path class="cls-1" d="M147.42,19.94h13.78l3.28,3.28v31.76l-3.16,3.16h-14.02l-3.12-3.12V23.18l3.24-3.24h0Zm18.39,2.79l-4.12-4.12h-14.85l-4.06,4.06V55.5l3.97,3.97h15.11l3.94-3.94V22.73h0Z"/><g><path class="cls-1" d="M44.67,103.54l-.44-3.02h-5.53v19.53l2.95,.44v1.86h-10.48v-1.86l2.95-.44v-19.53h-5.53l-.44,3.02h-1.97v-5.57h20.44v5.57h-1.97Z"/><path class="cls-1" d="M59.83,122.35v-1.75l2.73-.44v-6.66h-7.27v6.66l2.73,.44v1.75h-9.93v-1.75l2.84-.44v-14.73l-2.84-.44v-1.75h9.93v1.75l-2.73,.44v5.75h7.27v-5.75l-2.73-.44v-1.75h9.93v1.75l-2.84,.44v14.73l2.84,.44v1.75h-9.93Z"/><path class="cls-1" d="M88.35,122.35h-16.48v-1.75l2.84-.44v-14.73l-2.84-.44v-1.75h16.48v5.06h-1.85l-.44-2.73h-6.98v5.67h4.36l.44-2.44h1.64v7.06h-1.64l-.44-2.44h-4.36v6.58h6.98l.44-2.73h1.85v5.06Z"/><path class="cls-1" d="M111.52,122.78c-7.57,0-10.87-4.51-10.87-12.7s3.35-12.55,10.91-12.55,10.88,4.51,10.88,12.7-3.35,12.55-10.91,12.55Zm.04-22.59c-4.04,0-6.11,3.24-6.11,9.93s2,10,6.04,10,6.11-3.24,6.11-9.93-2-10-6.04-10Z"/><path class="cls-1" d="M136.15,122.35v-1.75l2.73-.44v-6.66h-7.27v6.66l2.73,.44v1.75h-9.93v-1.75l2.84-.44v-14.73l-2.84-.44v-1.75h9.93v1.75l-2.73,.44v5.75h7.27v-5.75l-2.73-.44v-1.75h9.93v1.75l-2.84,.44v14.73l2.84,.44v1.75h-9.93Z"/><path class="cls-1" d="M148.44,122.35v-1.75l2.84-.44v-14.73l-2.84-.44v-1.75h10.04v1.75l-2.84,.44v14.73l2.84,.44v1.75h-10.04Z"/><path class="cls-1" d="M169.25,122.71c-6.44,0-9.24-3.6-9.24-9.93s2.84-9.86,9.28-9.86,9.24,3.6,9.24,9.93-2.84,9.86-9.27,9.86Zm.04-17.28c-3.06,0-4.69,2.22-4.69,7.35s1.56,7.42,4.62,7.42,4.73-2.22,4.73-7.35-1.6-7.42-4.66-7.42Z"/><path class="cls-1" d="M198.42,122.78c-4.22,0-7.6-1.46-7.6-1.46v-5.2h2.07l.47,3.35s1.56,.54,4.33,.54,5.38-.95,5.38-4.04c0-2.8-1.96-3.2-4.37-4-3.82-1.27-7.86-2.36-7.86-7.6,0-4.26,2.66-6.84,8.22-6.84,2.55,0,5.2,.58,7.28,1.38v4.88h-2.07l-.47-3.13s-2.18-.47-4.29-.47-4.29,.73-4.29,3.53c0,6.07,12.22,2.07,12.22,11.79,0,4.58-2.98,7.28-9.02,7.28Z"/><path class="cls-1" d="M224.68,108.52l-.44-2.95h-4.22v14.58l2.84,.44v1.75h-10.04v-1.75l2.84-.44v-14.58h-4.22l-.44,2.95h-1.86v-5.28h17.39v5.28h-1.86Z"/><path class="cls-1" d="M238.21,122.35v-1.75l2.73-.44-1.34-3.45h-7.27l-1.35,3.45,2.73,.44v1.75h-8.33v-1.75l2.73-.44,6.55-16.91h4.18l6.55,16.91,2.73,.44v1.75h-9.89Zm-2.26-15.42l-2.76,7.57h5.53l-2.77-7.57Z"/><path class="cls-1" d="M262.47,108.52l-.44-2.95h-4.22v14.58l2.84,.44v1.75h-10.04v-1.75l2.84-.44v-14.58h-4.22l-.44,2.95h-1.85v-5.28h17.39v5.28h-1.86Z"/><path class="cls-1" d="M282.47,122.35h-16.48v-1.75l2.84-.44v-14.73l-2.84-.44v-1.75h16.48v5.06h-1.86l-.44-2.73h-6.98v5.67h4.36l.44-2.44h1.64v7.06h-1.64l-.44-2.44h-4.36v6.58h6.98l.44-2.73h1.86v5.06Z"/></g><g><path class="cls-1" d="M78.11,136.29v12.44c0,4.18-.25,6-2.22,7.96-1.42,1.42-3.75,2.11-7.2,2.11s-5.97-.95-7.57-2.54c-2.07-2.07-1.85-5.17-1.85-7.86v-12.11l-2.95-.44v-1.86h10.48v1.86l-2.95,.44v14.26c0,4,2.22,5.6,5.64,5.6,1.82,0,3.31-.36,4.29-1.42,.87-.91,1.35-2.33,1.35-4.18v-14.26l-2.95-.44v-1.86h8.88v1.86l-2.95,.44Z"/><path class="cls-1" d="M101.06,141.46v16.91h-3.42l-9.71-13.64v11.46l2.84,.44v1.75h-8.55v-1.75l2.84-.44v-14.73l-2.84-.44v-1.75h6.66l9.31,13.02v-10.84l-2.84-.44v-1.75h8.55v1.75l-2.84,.44Z"/><path class="cls-1" d="M106.15,158.37v-1.75l2.84-.44v-14.73l-2.84-.44v-1.75h10.04v1.75l-2.84,.44v14.73l2.84,.44v1.75h-10.04Z"/><path class="cls-1" d="M137.51,141.46l-6.37,16.91h-4.22l-6.37-16.91-2.73-.44v-1.75h9.89v1.75l-2.73,.44,4.84,13.1,4.8-13.1-2.73-.44v-1.75h8.33v1.75l-2.73,.44Z"/><path class="cls-1" d="M158.21,158.37h-16.48v-1.75l2.84-.44v-14.73l-2.84-.44v-1.75h16.48v5.06h-1.86l-.44-2.73h-6.99v5.68h4.36l.44-2.44h1.64v7.06h-1.64l-.44-2.44h-4.36v6.58h6.99l.44-2.73h1.86v5.06Z"/><path class="cls-1" d="M174.94,158.37l-1.78-4.37c-1.2-2.91-1.93-4.26-4.47-4.26h-.33v6.44l2.73,.44v1.75h-9.93v-1.75l2.84-.44v-14.73l-2.84-.44v-1.75h9.64c1.96,0,4.25,.11,5.75,1.49,.98,.91,1.53,2.15,1.53,3.56,0,2.22-1.46,4.22-3.46,4.84,1.6,1.2,2.98,5.13,3.78,7.02l2.73,.44v1.75h-6.18Zm-2.04-16.19c-.73-.76-2.29-.69-3.27-.69h-1.27v6.11h.76c1.24,0,2.95,.15,3.86-.87,.58-.65,.73-1.42,.73-2.25s-.18-1.64-.8-2.29Z"/><path class="cls-1" d="M189.74,158.73c-3.56,0-6.55-1.2-6.55-1.2v-4.95h1.96l.47,3.13s1.38,.4,3.53,.4c2.33,0,4.11-.77,4.11-2.84,0-1.45-.8-1.96-2-2.36-3.53-1.2-8.04-1.71-8.04-6.47,0-3.42,2.36-5.49,7.06-5.49,2.15,0,4.37,.44,6.3,1.13v4.73h-1.96l-.47-2.98s-1.6-.36-3.38-.36-3.35,.62-3.35,2.47c0,4.26,10.08,1.42,10.08,8.98,0,3.71-2.69,5.82-7.75,5.82Z"/><path class="cls-1" d="M200.03,158.37v-1.75l2.84-.44v-14.73l-2.84-.44v-1.75h10.04v1.75l-2.84,.44v14.73l2.84,.44v1.75h-10.04Z"/><path class="cls-1" d="M227.68,144.55l-.44-2.95h-4.22v14.59l2.84,.44v1.75h-10.04v-1.75l2.84-.44v-14.59h-4.22l-.43,2.95h-1.86v-5.28h17.39v5.28h-1.85Z"/><path class="cls-1" d="M249.61,141.46l-5.57,8.62v6.11l2.84,.44v1.75h-10.04v-1.75l2.84-.44v-6.11l-5.64-8.62-2.73-.44v-1.75h10.11v1.75l-2.73,.44,3.93,6.18,3.89-6.18-2.62-.44v-1.75h8.44v1.75l-2.73,.44Z"/></g><polygon class="cls-1" points="54.87 171.65 54.87 173.02 253.79 173.02 253.79 171.65 54.87 171.65 54.87 171.65"/><path class="cls-1" d="M181.42,71.72h-1.01v1.34h1.01c.32,0,.67-.27,.67-.66,0-.41-.35-.68-.67-.68m.61,3.26l-.96-1.47h-.66v1.47h-.5v-3.71h1.51c.62,0,1.19,.44,1.19,1.13,0,.82-.73,1.1-.95,1.1l.99,1.48h-.62Zm-.88-4.64c-1.53,0-2.76,1.22-2.76,2.77s1.24,2.76,2.76,2.76,2.78-1.25,2.78-2.76-1.24-2.77-2.78-2.77m0,6.01c-1.79,0-3.24-1.45-3.24-3.23s1.45-3.23,3.24-3.23,3.23,1.43,3.23,3.23-1.44,3.23-3.23,3.23"/></g><g><path class="cls-1" d="M4.97,188.92H0v-2.11H12.31v2.11H7.37v13.9h-2.4v-13.9Z"/><path class="cls-1" d="M25.46,195.66h-8.86v7.15h-2.4v-16.01h2.4v6.72h8.86v-6.72h2.4v16.01h-2.4v-7.15Z"/><path class="cls-1" d="M30.82,186.81h10.75v2.11h-8.35v4.68h8.18v2.11h-8.18v4.99h8.35v2.11h-10.75v-16.01Z"/><path class="cls-1" d="M56.95,186.54c4.78,0,8.06,3.53,8.06,8.28s-3.29,8.28-8.06,8.28-8.06-3.53-8.06-8.28,3.29-8.28,8.06-8.28Zm0,2.14c-3.43,0-5.59,2.62-5.59,6.14s2.16,6.14,5.59,6.14,5.59-2.64,5.59-6.14-2.21-6.14-5.59-6.14Z"/><path class="cls-1" d="M78.58,195.66h-8.86v7.15h-2.4v-16.01h2.4v6.72h8.86v-6.72h2.4v16.01h-2.4v-7.15Z"/><path class="cls-1" d="M83.93,186.81h2.4v16.01h-2.4v-16.01Z"/><path class="cls-1" d="M96.7,186.54c4.78,0,8.06,3.53,8.06,8.28s-3.29,8.28-8.06,8.28-8.06-3.53-8.06-8.28,3.29-8.28,8.06-8.28Zm0,2.14c-3.43,0-5.59,2.62-5.59,6.14s2.16,6.14,5.59,6.14,5.59-2.64,5.59-6.14-2.21-6.14-5.59-6.14Z"/><path class="cls-1" d="M113.04,198.71c1.08,1.2,2.81,2.26,5.04,2.26,2.59,0,3.5-1.32,3.5-2.47,0-1.68-1.82-2.16-3.86-2.69-2.57-.67-5.54-1.42-5.54-4.68,0-2.64,2.33-4.56,5.66-4.56,2.47,0,4.42,.79,5.83,2.23l-1.39,1.78c-1.22-1.3-2.9-1.87-4.63-1.87s-3,.91-3,2.26c0,1.44,1.73,1.9,3.72,2.4,2.62,.7,5.66,1.51,5.66,4.92,0,2.5-1.73,4.82-6.05,4.82-2.86,0-4.94-1.03-6.31-2.54l1.37-1.85Z"/><path class="cls-1" d="M129.94,188.92h-4.97v-2.11h12.31v2.11h-4.94v13.9h-2.4v-13.9Z"/><path class="cls-1" d="M147.72,199.5h-7.85l-1.3,3.31h-2.64l6.36-16.01h3l6.36,16.01h-2.64l-1.3-3.31Zm-7.15-2.14h6.46l-3.24-8.47-3.22,8.47Z"/><path class="cls-1" d="M155.3,188.92h-4.97v-2.11h12.31v2.11h-4.94v13.9h-2.4v-13.9Z"/><path class="cls-1" d="M164.54,186.81h10.75v2.11h-8.35v4.68h8.18v2.11h-8.18v4.99h8.35v2.11h-10.75v-16.01Z"/><path class="cls-1" d="M183.29,186.81h2.42v9.67c0,2.74,1.51,4.49,4.32,4.49s4.3-1.75,4.3-4.49v-9.67h2.42v9.72c0,3.98-2.23,6.58-6.72,6.58s-6.74-2.62-6.74-6.55v-9.75Z"/><path class="cls-1" d="M202.13,190.53v12.29h-2.4v-16.01h2.47l8.71,12v-12h2.4v16.01h-2.33l-8.86-12.29Z"/><path class="cls-1" d="M216.26,186.81h2.4v16.01h-2.4v-16.01Z"/><path class="cls-1" d="M219.98,186.81h2.74l5.11,13.39,5.14-13.39h2.74l-6.36,16.01h-3l-6.36-16.01Z"/><path class="cls-1" d="M237.02,186.81h10.75v2.11h-8.35v4.68h8.18v2.11h-8.18v4.99h8.35v2.11h-10.75v-16.01Z"/><path class="cls-1" d="M255.57,196.65h-3v6.17h-2.4v-16.01h6.74c3.05,0,5.14,1.97,5.14,4.92s-1.94,4.42-3.98,4.68l4.1,6.41h-2.78l-3.82-6.17Zm1.03-7.73h-4.03v5.62h4.03c1.73,0,2.98-1.13,2.98-2.81s-1.25-2.81-2.98-2.81Z"/><path class="cls-1" d="M264.79,198.71c1.08,1.2,2.81,2.26,5.04,2.26,2.59,0,3.5-1.32,3.5-2.47,0-1.68-1.82-2.16-3.86-2.69-2.57-.67-5.54-1.42-5.54-4.68,0-2.64,2.33-4.56,5.66-4.56,2.47,0,4.42,.79,5.83,2.23l-1.39,1.78c-1.22-1.3-2.9-1.87-4.63-1.87s-3,.91-3,2.26c0,1.44,1.73,1.9,3.72,2.4,2.62,.7,5.66,1.51,5.66,4.92,0,2.5-1.73,4.82-6.05,4.82-2.86,0-4.95-1.03-6.31-2.54l1.37-1.85Z"/><path class="cls-1" d="M277.97,186.81h2.4v16.01h-2.4v-16.01Z"/><path class="cls-1" d="M287.25,188.92h-4.97v-2.11h12.31v2.11h-4.94v13.9h-2.4v-13.9Z"/><path class="cls-1" d="M301.1,196.12l-6.26-9.31h2.76l4.71,7.15,4.66-7.15h2.78l-6.24,9.31v6.7h-2.4v-6.7Z"/></g></svg>